<?xml version="1.0" encoding="UTF-8"?>
<!-- Generator: Adobe Illustrator 21.1.0, SVG Export Plug-In . SVG Version: 6.00 Build 0)  -->
<svg version="1.1" id="Calque_1" xmlns="http://www.w3.org/2000/svg" xmlns:xlink="http://www.w3.org/1999/xlink" x="0px" y="0px" viewBox="0 0 474.8 160" enable-background="new 0 0 474.8 160" xml:space="preserve">
<g>
	<polyline fill="#A5BEE0" points="78.9,52.7 80.3,76.3 154.2,109.5 143.6,44.6 76,0 77.1,19.7 134.6,54.6 139,83.5 78.9,52.7  "/>
	<path fill="#024887" d="M17.2,59.5l60-39.8l57.5,34.8L108,67.7L78.9,52.7L15.7,88.3L17.2,59.5 M0,143.6l13.5-5.6l1.5-28.5   l65.4-33.2l73.9,33.2l-63.7,22.6L92,156l-13.8,4L0,143.6L0,143.6L0,143.6z"/>
	<path fill="#024887" d="M446.6,39.2v-19h-9.4v48.3h9.4V46.9H464v21.6h9.4V20.1H464v19H446.6 M429.1,21.7c-3.3-1.8-7-2.8-10.8-2.8   c-14.2,0-23.9,12.1-23.9,25.8c0,13.3,10.1,25.1,23.7,25.1c3.9,0,7.4-1.2,11-2.9V55.7c-2.6,3-6.7,5.1-10.7,5.1   c-8.8,0-14.2-8.1-14.2-16.3c0-8.3,5.2-16.7,14.2-16.7c4,0,8,1.9,10.6,5.1V21.7L429.1,21.7L429.1,21.7z M389.4,28.3v-8.2h-25v48.3   h25v-8.2h-15.6V47.2h15V39h-15V28.3H389.4L389.4,28.3L389.4,28.3z M350,28.3h9.7v-8.2h-28.9v8.2h9.7v40.1h9.4V28.3L350,28.3   L350,28.3z M304.2,46.3v22.2h9.4V46.3l15.3-26.2h-11l-9.2,16.8l-8.5-16.8h-11L304.2,46.3L304.2,46.3L304.2,46.3z M280.9,20.1h-9.4   v48.3h22.8v-8.2h-13.3V20.1L280.9,20.1L280.9,20.1z M240.9,28.2c8.3,0,14.2,7.9,14.2,15.7c0,7.3-6.2,16.6-14.2,16.6   c-8,0-14.2-9.3-14.2-16.6C226.8,36,232.7,28.2,240.9,28.2L240.9,28.2L240.9,28.2z M240.9,69.8c14.1,0,23.9-11.7,23.9-25.5   c0-13.5-9.8-25.4-23.9-25.4c-14.1,0-23.9,11.9-23.9,25.4C217,58.1,226.8,69.8,240.9,69.8L240.9,69.8L240.9,69.8z M193.3,28h1.7   c5.3,0,8.8,0.9,8.8,7.1c0,6.3-3,7.5-8.6,7.5h-1.9V28L193.3,28L193.3,28z M193.3,50.4h4.7c9.9,0,15.5-5,15.5-15.3   c0-11-6.6-15-16.7-15h-12.8v48.3h9.4V50.4L193.3,50.4L193.3,50.4z"/>
	<path fill="#024887" d="M472.6,95.1c-4.2-4.5-12.6-7.4-18.7-7.4c-11.5,0-19.9,8.9-19.9,19.9c0,10.3,6.4,14.6,15.2,18.1   c5.3,2,11.9,4,11.9,10.8c0,5.1-3.4,9.6-8.8,9.6c-5.7,0-10.5-4.6-12.3-9.7l-8.6,8.2c4.7,7.7,11.6,12.9,21,12.9   c14,0,22.5-9.4,22.5-22.7c0-22.3-27.1-17.6-27.1-28.8c0-4.3,4.1-7.5,8.3-7.5c4.4,0,7.7,2.1,10.2,5.5L472.6,95.1 M354.7,155.8H368   v-45.1h0.2l36,46.4h9.6V89.4h-13.3v44.6h-0.2l-36-46.4h-9.6V155.8L354.7,155.8L354.7,155.8z M302.6,100.4c11.7,0,20,10.8,20,21.6   c0,10-8.7,22.8-20,22.8c-11.3,0-20-12.8-20-22.8C282.6,111.3,290.9,100.4,302.6,100.4L302.6,100.4L302.6,100.4z M302.6,157.5   c19.9,0,33.8-16,33.8-35c0-18.6-13.9-34.9-33.8-34.9c-19.9,0-33.8,16.3-33.8,34.9C268.8,141.5,282.6,157.5,302.6,157.5L302.6,157.5   L302.6,157.5z M241.7,155.8h13.4l-10.2-68.1h-9.6l-16.1,43.7l-16.9-43.7h-9.4l-11.5,68.1h13.4l6.1-41.2h0.2l15,42.1h4.6l15.5-42.1   h0.2L241.7,155.8L241.7,155.8L241.7,155.8z"/>
</g>
</svg>