<?xml version="1.0" encoding="UTF-8"?>
<svg xmlns="http://www.w3.org/2000/svg" xmlns:xlink="http://www.w3.org/1999/xlink" width="468.73pt" height="207.16pt" viewBox="0 0 468.73 207.16" version="1.1">
<defs>
<clipPath id="clip1">
  <path d="M 287 173 L 314 173 L 314 207.160156 L 287 207.160156 Z M 287 173 "/>
</clipPath>
<clipPath id="clip2">
  <path d="M 448 182 L 468.699219 182 L 468.699219 207 L 448 207 Z M 448 182 "/>
</clipPath>
</defs>
<g id="surface1">
<path style=" stroke:none;fill-rule:evenodd;fill:rgb(76.960754%,5.265808%,24.360657%);fill-opacity:1;" d="M 5.589844 189.847656 L 162.269531 189.847656 L 162.269531 206.363281 L 5.589844 206.363281 L 5.589844 189.847656 "/>
<path style=" stroke:none;fill-rule:nonzero;fill:rgb(56.864929%,56.079102%,56.274414%);fill-opacity:1;" d="M 36.976562 68.386719 C 36.976562 68.386719 49.820312 107.046875 59.867188 137.296875 C 65.875 99.015625 75.636719 36.820312 75.636719 36.820312 C 76.28125 32.714844 79.796875 29.679688 83.949219 29.636719 L 147.90625 29.011719 C 132.453125 11.246094 109.695312 0 84.300781 0 C 45.234375 0 12.386719 26.578125 2.824219 62.636719 L 28.890625 62.566406 C 32.558594 62.558594 35.820312 64.90625 36.976562 68.386719 "/>
<path style=" stroke:none;fill-rule:nonzero;fill:rgb(56.864929%,56.079102%,56.274414%);fill-opacity:1;" d="M 0.132812 79.644531 C 0.0507812 81.1875 0 82.738281 0 84.304688 C 0 118.609375 20.507812 148.109375 49.917969 161.273438 C 41.617188 136.28125 25.335938 87.261719 22.78125 79.585938 C 18.175781 79.597656 8.53125 79.621094 0.132812 79.644531 "/>
<path style=" stroke:none;fill-rule:nonzero;fill:rgb(56.864929%,56.079102%,56.274414%);fill-opacity:1;" d="M 91.316406 46.566406 C 89.605469 57.457031 76.199219 142.886719 72.296875 167.738281 C 76.21875 168.300781 80.222656 168.605469 84.300781 168.605469 C 130.859375 168.605469 168.605469 130.859375 168.605469 84.304688 C 168.605469 70.464844 165.25 57.417969 159.339844 45.898438 C 133.285156 46.152344 98.871094 46.492188 91.316406 46.566406 "/>
<path style=" stroke:none;fill-rule:nonzero;fill:rgb(100%,100%,100%);fill-opacity:1;" d="M 159.339844 45.898438 C 156.210938 39.800781 152.367188 34.136719 147.90625 29.011719 L 83.949219 29.636719 C 79.796875 29.679688 76.28125 32.714844 75.636719 36.820312 C 75.636719 36.820312 65.875 99.015625 59.867188 137.296875 C 49.820312 107.046875 36.976562 68.386719 36.976562 68.386719 C 35.820312 64.90625 32.558594 62.558594 28.890625 62.566406 L 2.824219 62.636719 C 1.371094 68.109375 0.453125 73.796875 0.132812 79.644531 C 8.53125 79.621094 18.175781 79.597656 22.78125 79.585938 C 25.335938 87.261719 41.617188 136.28125 49.917969 161.273438 C 56.925781 164.40625 64.433594 166.617188 72.296875 167.738281 C 76.199219 142.886719 89.605469 57.457031 91.316406 46.566406 C 98.871094 46.492188 133.285156 46.152344 159.339844 45.898438 "/>
<path style=" stroke:none;fill-rule:nonzero;fill:rgb(56.864929%,56.079102%,56.274414%);fill-opacity:1;" d="M 203.117188 119.84375 L 224.324219 119.84375 L 224.324219 123.460938 L 207.414062 123.460938 L 207.414062 133.726562 L 222.246094 133.726562 L 222.246094 137.34375 L 207.414062 137.34375 L 207.414062 152.128906 L 203.117188 152.128906 L 203.117188 119.84375 "/>
<path style=" stroke:none;fill-rule:nonzero;fill:rgb(56.864929%,56.079102%,56.274414%);fill-opacity:1;" d="M 242.910156 140.054688 C 241.417969 141.140625 238.523438 141.1875 235.945312 141.640625 C 233.414062 142.089844 231.242188 142.996094 231.242188 145.84375 C 231.242188 148.375 233.414062 149.28125 235.765625 149.28125 C 240.828125 149.28125 242.910156 146.113281 242.910156 143.988281 Z M 249.148438 152.039062 C 248.472656 152.445312 247.613281 152.671875 246.390625 152.671875 C 244.402344 152.671875 243.136719 151.585938 243.136719 149.054688 C 241.011719 151.539062 238.160156 152.671875 234.90625 152.671875 C 230.65625 152.671875 227.175781 150.773438 227.175781 146.113281 C 227.175781 140.824219 231.105469 139.695312 235.085938 138.925781 C 239.339844 138.109375 242.953125 138.382812 242.953125 135.488281 C 242.953125 132.144531 240.195312 131.601562 237.753906 131.601562 C 234.5 131.601562 232.101562 132.59375 231.921875 136.03125 L 228.078125 136.03125 C 228.304688 130.242188 232.78125 128.207031 237.980469 128.207031 C 242.1875 128.207031 246.753906 129.15625 246.753906 134.628906 L 246.753906 146.65625 C 246.753906 148.46875 246.753906 149.28125 247.976562 149.28125 C 248.289062 149.28125 248.652344 149.234375 249.148438 149.054688 L 249.148438 152.039062 "/>
<path style=" stroke:none;fill-rule:nonzero;fill:rgb(56.864929%,56.079102%,56.274414%);fill-opacity:1;" d="M 268.59375 136.257812 C 268.003906 133.316406 265.96875 131.601562 262.804688 131.601562 C 257.242188 131.601562 255.523438 135.984375 255.523438 140.734375 C 255.523438 145.03125 257.46875 149.28125 262.351562 149.28125 C 266.0625 149.28125 268.277344 147.109375 268.773438 143.582031 L 272.707031 143.582031 C 271.847656 149.28125 268.277344 152.671875 262.398438 152.671875 C 255.253906 152.671875 251.453125 147.695312 251.453125 140.734375 C 251.453125 133.726562 255.070312 128.207031 262.488281 128.207031 C 267.777344 128.207031 272.027344 130.695312 272.570312 136.257812 L 268.59375 136.257812 "/>
<path style=" stroke:none;fill-rule:nonzero;fill:rgb(56.864929%,56.079102%,56.274414%);fill-opacity:1;" d="M 296.355469 152.128906 L 292.738281 152.128906 L 292.738281 148.421875 L 292.648438 148.421875 C 291.019531 151.316406 288.398438 152.671875 285.050781 152.671875 C 278.902344 152.671875 277.003906 149.144531 277.003906 144.125 L 277.003906 128.75 L 280.847656 128.75 L 280.847656 144.578125 C 280.847656 147.425781 282.65625 149.28125 285.59375 149.28125 C 290.253906 149.28125 292.515625 146.160156 292.515625 141.953125 L 292.515625 128.75 L 296.355469 128.75 L 296.355469 152.128906 "/>
<path style=" stroke:none;fill-rule:nonzero;fill:rgb(56.864929%,56.079102%,56.274414%);fill-opacity:1;" d="M 302.371094 152.128906 L 306.214844 152.128906 L 306.214844 119.84375 L 302.371094 119.84375 Z M 302.371094 152.128906 "/>
<path style=" stroke:none;fill-rule:nonzero;fill:rgb(56.864929%,56.079102%,56.274414%);fill-opacity:1;" d="M 317.519531 128.75 L 322.175781 128.75 L 322.175781 132.144531 L 317.519531 132.144531 L 317.519531 146.65625 C 317.519531 148.421875 318.015625 148.738281 320.414062 148.738281 L 322.175781 148.738281 L 322.175781 152.128906 L 319.238281 152.128906 C 315.257812 152.128906 313.675781 151.316406 313.675781 147.019531 L 313.675781 132.144531 L 309.695312 132.144531 L 309.695312 128.75 L 313.675781 128.75 L 313.675781 121.742188 L 317.519531 121.742188 L 317.519531 128.75 "/>
<path style=" stroke:none;fill-rule:nonzero;fill:rgb(56.864929%,56.079102%,56.274414%);fill-opacity:1;" d="M 336.824219 119.074219 L 341.753906 119.074219 L 335.832031 125.539062 L 332.9375 125.539062 Z M 342.660156 138.203125 C 342.480469 134.539062 339.722656 131.601562 335.921875 131.601562 C 331.898438 131.601562 329.5 134.628906 329.230469 138.203125 Z M 346.367188 144.714844 C 345.328125 149.867188 341.617188 152.671875 336.375 152.671875 C 328.914062 152.671875 325.386719 147.515625 325.160156 140.371094 C 325.160156 133.363281 329.773438 128.207031 336.148438 128.207031 C 344.421875 128.207031 346.953125 135.941406 346.730469 141.59375 L 329.230469 141.59375 C 329.09375 145.664062 331.398438 149.28125 336.511719 149.28125 C 339.675781 149.28125 341.890625 147.742188 342.570312 144.714844 L 346.367188 144.714844 "/>
<path style=" stroke:none;fill-rule:nonzero;fill:rgb(56.864929%,56.079102%,56.274414%);fill-opacity:1;" d="M 212.523438 203.542969 C 217.679688 203.542969 219.667969 199.109375 219.667969 194.726562 C 219.667969 190.113281 217.589844 185.863281 212.296875 185.863281 C 207.050781 185.863281 205.289062 190.339844 205.289062 194.90625 C 205.289062 199.292969 207.550781 203.542969 212.523438 203.542969 Z M 223.375 206.390625 L 219.53125 206.390625 L 219.53125 203.226562 L 219.441406 203.226562 C 218.175781 205.804688 215.191406 206.933594 211.980469 206.933594 C 204.789062 206.933594 201.21875 201.234375 201.21875 194.636719 C 201.21875 188.03125 204.746094 182.472656 211.890625 182.472656 C 214.285156 182.472656 217.722656 183.375 219.441406 186.132812 L 219.53125 186.132812 L 219.53125 174.105469 L 223.375 174.105469 L 223.375 206.390625 "/>
<path style=" stroke:none;fill-rule:nonzero;fill:rgb(56.864929%,56.079102%,56.274414%);fill-opacity:1;" d="M 245.53125 192.464844 C 245.351562 188.800781 242.59375 185.863281 238.796875 185.863281 C 234.769531 185.863281 232.375 188.890625 232.101562 192.464844 Z M 249.238281 198.976562 C 248.199219 204.132812 244.492188 206.933594 239.246094 206.933594 C 231.785156 206.933594 228.257812 201.777344 228.03125 194.636719 C 228.03125 187.625 232.644531 182.472656 239.019531 182.472656 C 247.296875 182.472656 249.828125 190.203125 249.601562 195.855469 L 232.101562 195.855469 C 231.96875 199.925781 234.273438 203.542969 239.382812 203.542969 C 242.546875 203.542969 244.765625 202.003906 245.441406 198.976562 L 249.238281 198.976562 "/>
<path style=" stroke:none;fill-rule:nonzero;fill:rgb(56.864929%,56.079102%,56.274414%);fill-opacity:1;" d="M 255.933594 199.019531 C 256.066406 202.457031 259.050781 203.542969 262.21875 203.542969 C 264.613281 203.542969 267.867188 203 267.867188 200.0625 C 267.867188 197.074219 264.070312 196.578125 260.226562 195.71875 C 256.429688 194.859375 252.585938 193.59375 252.585938 189.117188 C 252.585938 184.414062 257.242188 182.472656 261.3125 182.472656 C 266.46875 182.472656 270.582031 184.097656 270.898438 189.796875 L 267.054688 189.796875 C 266.785156 186.8125 264.160156 185.863281 261.628906 185.863281 C 259.324219 185.863281 256.65625 186.496094 256.65625 188.847656 C 256.65625 191.605469 260.726562 192.058594 264.296875 192.914062 C 268.140625 193.773438 271.9375 195.042969 271.9375 199.5625 C 271.9375 205.125 266.738281 206.933594 261.992188 206.933594 C 256.746094 206.933594 252.3125 204.808594 252.089844 199.019531 L 255.933594 199.019531 "/>
<g clip-path="url(#clip1)" clip-rule="nonzero">
<path style=" stroke:none;fill-rule:nonzero;fill:rgb(56.864929%,56.079102%,56.274414%);fill-opacity:1;" d="M 308.066406 183.554688 C 307.570312 178.941406 304.496094 176.953125 300.0625 176.953125 C 296.445312 176.953125 292.828125 178.265625 292.828125 182.472656 C 292.828125 186.449219 297.984375 187.039062 303.183594 188.214844 C 308.339844 189.390625 313.496094 191.199219 313.496094 197.527344 C 313.496094 204.402344 306.757812 207.160156 300.878906 207.160156 C 293.644531 207.160156 287.539062 203.632812 287.539062 195.765625 L 291.609375 195.765625 C 291.609375 201.191406 296.132812 203.542969 301.015625 203.542969 C 304.902344 203.542969 309.199219 202.320312 309.199219 197.664062 C 309.199219 193.230469 304.042969 192.464844 298.890625 191.332031 C 293.734375 190.203125 288.535156 188.710938 288.535156 182.785156 C 288.535156 176.230469 294.367188 173.335938 300.246094 173.335938 C 306.847656 173.335938 311.867188 176.457031 312.136719 183.554688 L 308.066406 183.554688 "/>
</g>
<path style=" stroke:none;fill-rule:nonzero;fill:rgb(56.864929%,56.079102%,56.274414%);fill-opacity:1;" d="M 333.933594 190.519531 C 333.347656 187.578125 331.3125 185.863281 328.144531 185.863281 C 322.585938 185.863281 320.863281 190.246094 320.863281 194.996094 C 320.863281 199.292969 322.808594 203.542969 327.691406 203.542969 C 331.402344 203.542969 333.617188 201.371094 334.113281 197.84375 L 338.050781 197.84375 C 337.1875 203.542969 333.617188 206.933594 327.738281 206.933594 C 320.59375 206.933594 316.796875 201.960938 316.796875 194.996094 C 316.796875 187.988281 320.414062 182.472656 327.828125 182.472656 C 333.121094 182.472656 337.371094 184.957031 337.914062 190.519531 L 333.933594 190.519531 "/>
<path style=" stroke:none;fill-rule:nonzero;fill:rgb(56.864929%,56.079102%,56.274414%);fill-opacity:1;" d="M 342.570312 183.015625 L 346.414062 183.015625 L 346.414062 206.390625 L 342.570312 206.390625 Z M 346.414062 178.808594 L 342.570312 178.808594 L 342.570312 174.105469 L 346.414062 174.105469 L 346.414062 178.808594 "/>
<path style=" stroke:none;fill-rule:nonzero;fill:rgb(56.864929%,56.079102%,56.274414%);fill-opacity:1;" d="M 368.613281 192.464844 C 368.433594 188.800781 365.675781 185.863281 361.878906 185.863281 C 357.851562 185.863281 355.457031 188.890625 355.183594 192.464844 Z M 372.320312 198.976562 C 371.28125 204.132812 367.574219 206.933594 362.328125 206.933594 C 354.867188 206.933594 351.339844 201.777344 351.113281 194.636719 C 351.113281 187.625 355.726562 182.472656 362.105469 182.472656 C 370.378906 182.472656 372.910156 190.203125 372.683594 195.855469 L 355.183594 195.855469 C 355.050781 199.925781 357.355469 203.542969 362.464844 203.542969 C 365.628906 203.542969 367.847656 202.003906 368.523438 198.976562 L 372.320312 198.976562 "/>
<path style=" stroke:none;fill-rule:nonzero;fill:rgb(56.864929%,56.079102%,56.274414%);fill-opacity:1;" d="M 376.664062 183.015625 L 380.28125 183.015625 L 380.28125 186.722656 L 380.371094 186.722656 C 382 183.828125 384.621094 182.472656 387.96875 182.472656 C 394.117188 182.472656 396.015625 185.996094 396.015625 191.015625 L 396.015625 206.390625 L 392.175781 206.390625 L 392.175781 190.5625 C 392.175781 187.714844 390.363281 185.863281 387.425781 185.863281 C 382.769531 185.863281 380.507812 188.980469 380.507812 193.1875 L 380.507812 206.390625 L 376.664062 206.390625 L 376.664062 183.015625 "/>
<path style=" stroke:none;fill-rule:nonzero;fill:rgb(56.864929%,56.079102%,56.274414%);fill-opacity:1;" d="M 417.675781 190.519531 C 417.089844 187.578125 415.054688 185.863281 411.890625 185.863281 C 406.328125 185.863281 404.609375 190.246094 404.609375 194.996094 C 404.609375 199.292969 406.554688 203.542969 411.4375 203.542969 C 415.144531 203.542969 417.359375 201.371094 417.855469 197.84375 L 421.792969 197.84375 C 420.933594 203.542969 417.359375 206.933594 411.480469 206.933594 C 404.335938 206.933594 400.539062 201.960938 400.539062 194.996094 C 400.539062 187.988281 404.15625 182.472656 411.570312 182.472656 C 416.863281 182.472656 421.113281 184.957031 421.65625 190.519531 L 417.675781 190.519531 "/>
<path style=" stroke:none;fill-rule:nonzero;fill:rgb(56.864929%,56.079102%,56.274414%);fill-opacity:1;" d="M 442.320312 192.464844 C 442.140625 188.800781 439.382812 185.863281 435.582031 185.863281 C 431.558594 185.863281 429.160156 188.890625 428.890625 192.464844 Z M 446.027344 198.976562 C 444.988281 204.132812 441.277344 206.933594 436.035156 206.933594 C 428.574219 206.933594 425.046875 201.777344 424.820312 194.636719 C 424.820312 187.625 429.433594 182.472656 435.808594 182.472656 C 444.082031 182.472656 446.613281 190.203125 446.390625 195.855469 L 428.890625 195.855469 C 428.753906 199.925781 431.0625 203.542969 436.171875 203.542969 C 439.335938 203.542969 441.550781 202.003906 442.230469 198.976562 L 446.027344 198.976562 "/>
<g clip-path="url(#clip2)" clip-rule="nonzero">
<path style=" stroke:none;fill-rule:nonzero;fill:rgb(56.864929%,56.079102%,56.274414%);fill-opacity:1;" d="M 452.71875 199.019531 C 452.855469 202.457031 455.839844 203.542969 459.003906 203.542969 C 461.402344 203.542969 464.65625 203 464.65625 200.0625 C 464.65625 197.074219 460.859375 196.578125 457.015625 195.71875 C 453.21875 194.859375 449.375 193.59375 449.375 189.117188 C 449.375 184.414062 454.03125 182.472656 458.101562 182.472656 C 463.257812 182.472656 467.371094 184.097656 467.6875 189.796875 L 463.84375 189.796875 C 463.570312 186.8125 460.949219 185.863281 458.417969 185.863281 C 456.109375 185.863281 453.441406 186.496094 453.441406 188.847656 C 453.441406 191.605469 457.511719 192.058594 461.085938 192.914062 C 464.929688 193.773438 468.726562 195.042969 468.726562 199.5625 C 468.726562 205.125 463.527344 206.933594 458.777344 206.933594 C 453.535156 206.933594 449.101562 204.808594 448.875 199.019531 L 452.71875 199.019531 "/>
</g>
</g>
</svg>
