<?xml version="1.0" encoding="UTF-8" standalone="no"?>
<!-- Created with Inkscape (http://www.inkscape.org/) -->

<svg
   version="1.1"
   id="svg2"
   width="445.66187"
   height="151.76363"
   viewBox="0 0 445.66187 151.76363"
   sodipodi:docname="UMONS-logo.svg"
   inkscape:version="1.3.2 (091e20ef0f, 2023-11-25)"
   xmlns:inkscape="http://www.inkscape.org/namespaces/inkscape"
   xmlns:sodipodi="http://sodipodi.sourceforge.net/DTD/sodipodi-0.dtd"
   xmlns="http://www.w3.org/2000/svg"
   xmlns:svg="http://www.w3.org/2000/svg">
  <defs
     id="defs6" />
  <sodipodi:namedview
     id="namedview4"
     pagecolor="#ffffff"
     bordercolor="#000000"
     borderopacity="0.25"
     inkscape:showpageshadow="2"
     inkscape:pageopacity="0.0"
     inkscape:pagecheckerboard="0"
     inkscape:deskcolor="#d1d1d1"
     showgrid="false"
     inkscape:zoom="1.7897478"
     inkscape:cx="222.65707"
     inkscape:cy="62.019911"
     inkscape:window-width="1920"
     inkscape:window-height="1172"
     inkscape:window-x="0"
     inkscape:window-y="0"
     inkscape:window-maximized="1"
     inkscape:current-layer="g8" />
  <g
     inkscape:groupmode="layer"
     inkscape:label="Image"
     id="g8"
     transform="translate(-26.796295,-38.400787)">
    <g
       id="g1">
      <path
         style="fill:#b20147;fill-opacity:1;stroke-width:0.383516"
         d="m 26.846088,149.57106 v -3.45164 H 62.896549 98.94701 v 3.45164 3.45164 H 62.896549 26.846088 Z"
         id="path2009" />
      <path
         style="fill:#b20147;fill-opacity:1;stroke-width:0.383516"
         d="M 118.12279,85.14045 V 40.269132 l 6.04037,0.0049 6.04037,0.0049 6.66269,16.965631 c 11.35606,28.91668 23.10432,58.304067 24.03074,60.111137 l 0.88478,1.72582 1.31405,-2.87637 c 1.36047,-2.97797 11.3156,-27.970483 23.22009,-58.294367 l 6.85046,-17.449957 6.199,-0.105379 6.19899,-0.105379 v 44.880819 44.880823 h -4.02691 -4.02692 l -0.0382,-38.063923 c -0.021,-20.935154 -0.16273,-38.495372 -0.3149,-39.022706 -0.2706,-0.937769 -0.29413,-0.925072 -1.07319,0.579182 -0.73862,1.426167 -16.18784,40.008732 -26.22504,65.493867 l -4.34749,11.03857 -3.79957,-0.10837 -3.79956,-0.10838 L 145.1819,97.796399 C 133.81378,69.200358 129.64255,58.839317 127.50322,53.883934 c -0.58217,-1.348507 -0.6992,-1.441285 -0.96749,-0.767031 -0.16786,0.421867 -0.31734,17.895794 -0.33216,38.830948 l -0.027,38.063919 h -4.02691 -4.02691 z"
         id="path2011" />
      <path
         style="fill:#b20147;fill-opacity:1;stroke-width:0.383516"
         d="m 256.38014,131.66529 c -14.79554,-1.91771 -25.50073,-9.49389 -31.85293,-22.54267 -3.6706,-7.5402 -5.25913,-14.832624 -5.26589,-24.173927 -0.0169,-23.320421 12.50498,-41.123829 32.13312,-45.686463 3.76082,-0.874217 15.48211,-0.999974 19.17578,-0.205735 5.2073,1.119713 10.50703,3.307272 14.38183,5.936358 4.1573,2.820766 9.19447,8.397249 12.18831,13.493267 8.19411,13.947751 8.72841,35.664023 1.24554,50.62405 -7.37534,14.74506 -20.96328,23.029 -37.33545,22.76171 -1.93587,-0.0316 -4.03751,-0.12457 -4.67031,-0.20659 z m 8.81211,-6.65556 c 14.44538,-1.36982 24.30336,-10.10902 28.76628,-25.501587 2.65823,-9.168246 2.24471,-22.604548 -0.98627,-32.046243 -1.79718,-5.251784 -4.01653,-8.905418 -7.92833,-13.052128 -4.06564,-4.309799 -8.73307,-7.01516 -14.85723,-8.611632 -3.90015,-1.016708 -13.77376,-0.924066 -17.9058,0.168006 -3.30542,0.873604 -8.39953,3.287829 -11.06315,5.243109 -6.03275,4.428444 -10.90003,12.914864 -13.08196,22.809245 -0.7386,3.349356 -0.88927,5.156174 -0.89542,10.738435 -0.008,6.815942 0.30793,9.447549 1.78757,14.912469 3.97188,14.669706 14.3527,23.963996 28.31099,25.347746 1.582,0.15683 3.04895,0.30914 3.25988,0.33847 0.21093,0.0293 2.27798,-0.12632 4.59344,-0.34589 z"
         id="path2013" />
      <path
         style="fill:#b20147;fill-opacity:1;stroke-width:0.383516"
         d="M 317.93438,85.128278 V 40.24479 l 4.49925,0.10805 4.49924,0.10805 9.35493,13.614802 c 30.12111,43.837107 42.88422,62.129518 43.34945,62.129518 0.29651,0 0.81017,-40.524912 0.81017,-63.918621 V 40.269132 h 3.83515 3.83516 v 44.883491 44.883487 l -4.45741,-0.10805 -4.45742,-0.10805 -10.1602,-14.76535 C 336.07387,67.142604 326.73405,53.836659 326.17251,53.979785 c -0.24173,0.06161 -0.41097,13.658274 -0.4738,38.063918 l -0.0977,37.968067 h -3.83329 -3.8333 z"
         id="path2015" />
      <path
         style="fill:#b20147;fill-opacity:1;stroke-width:0.383516"
         d="m 430.82075,131.52363 c -17.98035,-2.80012 -27.03178,-11.57619 -28.3595,-27.49677 l -0.26373,-3.16227 3.21915,0.005 c 4.92696,0.008 4.72358,-0.14529 5.24136,3.95107 0.79751,6.30939 2.616,10.1465 6.48404,13.68167 6.40818,5.85672 20.92779,8.39535 31.76287,5.55348 12.35097,-3.23947 18.89077,-14.1818 14.20445,-23.76673 -1.82626,-3.735265 -6.34749,-7.101055 -11.90335,-8.861345 -1.68747,-0.534648 -8.41817,-2.343802 -14.95711,-4.02034 -6.53894,-1.676554 -13.46442,-3.570108 -15.38995,-4.20791 -10.14391,-3.360018 -15.14727,-9.732724 -15.18499,-19.340885 -0.0187,-4.769376 0.43635,-6.746463 2.56448,-11.141532 3.09323,-6.388211 9.3688,-11.201249 17.27202,-13.24676 6.3591,-1.645859 17.33141,-1.355649 23.40939,0.619163 12.08299,3.925914 19.00606,11.848001 20.3497,23.286222 l 0.25905,2.205215 h -4.07972 -4.07971 v -1.069971 c 0,-1.780291 -1.09353,-5.50033 -2.35971,-8.027419 -2.31892,-4.62819 -8.39329,-9.107649 -14.35844,-10.588428 -5.31057,-1.318287 -14.37821,-1.064516 -19.21359,0.537721 -4.54522,1.506089 -8.97438,5.117838 -10.49053,8.554475 -1.755,3.978024 -1.91357,10.860374 -0.32795,14.233642 0.99098,2.108216 3.90163,4.803757 6.59913,6.111443 1.09521,0.530931 8.6357,2.685018 16.75664,4.786859 8.12094,2.101842 15.7223,4.15622 16.8919,4.565285 3.55029,1.241708 7.90009,3.559527 10.25305,5.463394 10.87687,8.800884 9.42877,27.294521 -2.79171,35.652991 -2.92458,2.00033 -8.16885,4.1023 -12.37192,4.95883 -4.41264,0.89924 -15.43904,1.33928 -19.13532,0.76365 z"
         id="path2017" />
      <path
         style="fill:#87a2ad;fill-opacity:1;stroke-width:0.383516"
         d="M 56.952058,131.90239 C 41.654784,130.0831 32.250716,122.91841 28.593019,110.29646 28.073448,108.50353 27.557915,105.77732 27.44739,104.23822 27.336866,102.69912 27.145155,87.676447 27.021366,70.854497 L 26.796295,40.269132 h 5.73923 5.739231 l 0.191741,31.544153 c 0.125499,20.646491 0.33632,32.206625 0.610237,33.461735 0.712587,3.26512 3.219087,7.83532 5.629898,10.26522 3.966043,3.99743 8.184481,5.97571 14.552316,6.82444 13.003449,1.73315 23.226171,-3.67788 26.852338,-14.2133 1.453826,-4.22393 1.691311,-9.931922 1.70333,-40.940281 l 0.01044,-26.941967 h 5.752733 5.752734 l -0.03732,14.094196 c -0.02052,7.751808 -0.16554,22.550714 -0.322268,32.886458 l -0.284956,18.792264 -1.028895,3.45164 c -3.766763,12.63637 -11.606883,19.5581 -24.789141,21.88534 -4.169876,0.73616 -11.96991,0.99265 -15.915895,0.52336 z"
         id="path3396" />
      <path
         style="fill:#87a2ad;fill-opacity:1;stroke-width:0.383516"
         d="m 125.98486,189.68459 c -3.44771,-0.85203 -5.49246,-2.39129 -6.91458,-5.20519 -0.58447,-1.15649 -0.69957,-2.87788 -0.86546,-12.94365 l -0.19134,-11.60977 h 1.52724 1.52724 l 0.24211,10.53237 c 0.19089,8.30423 0.37003,10.83854 0.84681,11.97963 1.32734,3.17678 3.85543,4.7263 7.76277,4.75799 2.98022,0.0242 4.44407,-0.43802 5.97497,-1.88648 2.03184,-1.92243 2.07897,-2.20306 2.38014,-14.17198 l 0.28211,-11.21153 h 1.67194 1.67194 l -0.0241,8.53322 c -0.0401,14.18315 -0.65579,17.15439 -4.05542,19.57121 -2.83246,2.01361 -7.65482,2.68755 -11.83634,1.65418 z"
         id="path3348" />
      <path
         style="fill:#87a2ad;fill-opacity:1;stroke-width:0.271186"
         d="m 147.79661,178.84746 v -10.71187 h 1.34034 1.34034 l 0.0834,1.15021 c 0.11329,1.5627 0.73232,1.63628 2.22105,0.26402 1.51845,-1.39966 2.78299,-1.80548 5.59115,-1.79433 3.93659,0.0156 6.12238,1.57187 6.75113,4.80671 0.15008,0.77215 0.31063,4.91238 0.35678,9.20051 l 0.0839,7.79661 h -1.68635 -1.68634 l -0.079,-8.25182 c -0.0755,-7.8826 -0.10444,-8.28606 -0.64636,-9.01695 -0.31202,-0.42082 -0.98321,-1.05154 -1.49152,-1.4016 -1.92101,-1.32293 -6.00693,-0.29272 -7.65724,1.93066 -1.19259,1.6067 -1.31826,2.44184 -1.46819,9.75666 l -0.14314,6.98305 h -1.45494 -1.45495 z"
         id="path3350" />
      <path
         style="fill:#87a2ad;fill-opacity:1;stroke-width:0.271186"
         d="m 171.11864,178.84746 v -10.71187 h 1.49153 1.49153 v 10.71187 10.71186 h -1.49153 -1.49153 z"
         id="path3352" />
      <path
         style="fill:#87a2ad;fill-opacity:1;stroke-width:0.271186"
         d="m 171.11864,161.76271 v -2.0339 h 1.49153 1.49153 v 2.0339 2.0339 h -1.49153 -1.49153 z"
         id="path3354" />
      <path
         style="fill:#87a2ad;fill-opacity:1;stroke-width:0.271186"
         d="m 185.75991,189.01171 c -0.39795,-0.74357 -7.59042,-20.27139 -7.59042,-20.60826 0,-0.14732 0.72073,-0.26786 1.60163,-0.26786 h 1.60162 l 0.40172,1.15255 c 0.22095,0.63389 1.21835,3.5322 2.21644,6.44067 2.60355,7.58678 3.40514,9.53032 3.8915,9.43535 0.46825,-0.0914 1.32446,-2.36168 4.151,-11.00653 l 1.97674,-6.04577 1.50341,0.0797 c 1.16395,0.0617 1.48555,0.1715 1.42434,0.48644 -0.0435,0.22373 -1.74867,5.01356 -3.7893,10.64406 l -3.71025,10.23729 h -1.69268 c -1.42053,0 -1.7398,-0.088 -1.98575,-0.54761 z"
         id="path3356" />
      <path
         style="fill:#87a2ad;fill-opacity:1;stroke-width:0.271186"
         d="m 205.74006,189.3765 c -1.66567,-0.57567 -3.81626,-2.50037 -4.66475,-4.17479 -1.3629,-2.68954 -1.60355,-9.11431 -0.43993,-11.74486 1.87664,-4.24246 7.16567,-6.74831 11.55203,-5.47316 4.3083,1.25245 6.38904,4.2722 7.06518,10.2536 l 0.17627,1.55932 h -8.15511 -8.15511 v 1.30269 c 0,3.41668 3.08743,6.24404 6.85617,6.27863 2.20351,0.0202 4.48658,-1.35061 5.51292,-3.31013 0.35451,-0.67686 0.52947,-0.74577 1.89344,-0.74577 1.43361,0 1.49415,0.0281 1.31417,0.61017 -0.68626,2.21948 -2.02736,3.89493 -3.96104,4.94857 -1.32148,0.72005 -1.71505,0.79492 -4.56481,0.86837 -2.37476,0.0612 -3.4313,-0.0277 -4.42943,-0.37264 z m 9.5998,-12.57248 c 0.69678,-0.37291 0.66141,-1.09664 -0.1292,-2.64354 -1.81214,-3.54561 -5.31797,-4.81179 -8.59006,-3.10243 -0.92911,0.48537 -1.76852,1.20845 -2.36196,2.03462 -1.0364,1.44285 -1.46428,3.34915 -0.8404,3.74419 0.54027,0.3421 11.2763,0.31253 11.92162,-0.0328 z"
         id="path3358" />
      <path
         style="fill:#87a2ad;fill-opacity:1;stroke-width:0.271186"
         d="m 223.18644,178.84746 v -10.71187 h 1.2074 1.2074 l 0.0807,1.6922 c 0.10775,2.25837 0.5222,2.29752 2.57634,0.24339 1.61199,-1.61199 3.41064,-2.47796 5.14683,-2.47796 0.58633,0 0.62875,0.10769 0.62875,1.59633 v 1.59632 l -1.1544,0.17312 c -2.66907,0.40025 -5.14339,2.21565 -6.10459,4.47891 -0.35928,0.84598 -0.75957,6.94544 -0.86002,13.10447 l -0.0166,1.01695 h -1.35594 -1.35593 z"
         id="path3360" />
      <path
         style="fill:#87a2ad;fill-opacity:1;stroke-width:0.271186"
         d="m 242.58908,189.80301 c -3.55088,-0.52334 -5.17772,-1.44787 -6.21677,-3.53296 -0.39121,-0.78506 -0.71129,-1.76953 -0.71129,-2.1877 0,-0.73117 0.0518,-0.76032 1.35042,-0.76032 1.28742,0 1.37463,0.0474 1.86945,1.01695 0.59719,1.17011 1.14272,1.69911 2.47504,2.40006 1.27602,0.67132 5.44548,0.70801 6.64407,0.0585 1.41925,-0.76913 2.15717,-1.77029 2.15717,-2.92673 0,-1.92333 -1.29243,-2.76926 -6.2539,-4.09334 -1.77252,-0.47304 -3.83371,-1.13026 -4.58042,-1.46049 -1.81425,-0.80235 -3.03085,-2.21883 -3.26884,-3.80591 -0.39844,-2.65696 0.56621,-4.43655 3.16754,-5.84348 1.68035,-0.90882 1.8092,-0.93386 4.71065,-0.91543 3.64004,0.0231 5.31388,0.50858 6.71647,1.94799 1.08519,1.11368 1.82591,2.63487 1.82591,3.74984 0,0.71259 -0.0178,0.71936 -1.42373,0.54157 -0.85307,-0.10788 -1.53243,-0.35384 -1.69492,-0.61364 -1.33429,-2.13338 -2.95667,-3.05774 -5.38274,-3.06685 -1.83889,-0.007 -3.14463,0.52479 -4.11193,1.67437 -0.90555,1.07617 -0.84977,1.8443 0.20654,2.84411 1.2235,1.15805 1.60167,1.31911 5.59218,2.38152 4.12091,1.09713 5.75295,1.80566 6.67027,2.89584 1.81245,2.15397 1.53577,5.37672 -0.64881,7.55724 -1.87564,1.87216 -5.35257,2.69008 -9.09236,2.13889 z"
         id="path3362" />
      <path
         style="fill:#87a2ad;fill-opacity:1;stroke-width:0.271186"
         d="m 257.89831,178.84746 v -10.71187 h 1.49152 1.49153 v 10.71187 10.71186 h -1.49153 -1.49152 z"
         id="path3364" />
      <path
         style="fill:#87a2ad;fill-opacity:1;stroke-width:0.271186"
         d="m 269.9661,189.14472 c -0.59661,-0.21493 -1.10331,-0.39263 -1.12601,-0.39487 -0.51639,-0.0511 -0.95681,-6.57657 -1.1671,-17.29222 -0.0111,-0.56364 -0.13605,-0.61017 -1.63909,-0.61017 h -1.62712 v -1.35593 -1.35594 h 1.47552 c 0.81154,0 1.53746,-0.10022 1.61316,-0.2227 0.0757,-0.12249 0.22285,-1.64792 0.32699,-3.38984 l 0.18935,-3.16712 h 1.58732 1.58732 v 3.22523 c 0,3.68675 -0.0917,3.55443 2.46286,3.55443 h 1.60494 v 1.35594 1.35593 h -2.0339 -2.0339 v 7.16878 c 0,3.94284 0.11504,7.47138 0.25565,7.84121 0.27642,0.72702 0.55935,0.8525 2.52401,1.11942 l 1.28814,0.17501 v 1.20372 1.20372 l -2.1017,-0.0119 c -1.15593,-0.007 -2.58983,-0.18776 -3.18644,-0.4027 z"
         id="path3366" />
      <path
         style="fill:#87a2ad;fill-opacity:1;stroke-width:0.271186"
         d="m 284.74576,189.38329 c -2.31126,-0.79797 -3.8924,-2.30713 -5.21388,-4.97651 -0.85089,-1.7188 -0.87282,-1.85392 -0.88022,-5.42373 -0.007,-3.54871 0.0185,-3.71612 0.84345,-5.45719 1.5909,-3.35769 3.71652,-5.03819 7.16604,-5.66542 5.61021,-1.0201 10.10992,2.39454 11.08342,8.41075 0.15688,0.96949 0.28615,2.15932 0.28728,2.64406 l 0.002,0.88136 h -8.16918 -8.16917 l 0.12268,1.47932 c 0.16314,1.96727 1.58639,4.15421 3.39422,5.21551 1.13014,0.66346 1.57624,0.76096 3.48532,0.76182 1.92894,8.7e-4 2.32174,-0.0867 3.30298,-0.73602 0.61252,-0.40535 1.49422,-1.2901 1.95932,-1.9661 0.81097,-1.1787 0.90072,-1.22911 2.18855,-1.22911 1.58224,0 1.62505,0.14088 0.64219,2.11323 -0.90355,1.81318 -2.78844,3.46937 -4.54065,3.98973 -1.79609,0.53337 -5.90486,0.51055 -7.5044,-0.0417 z m 9.79524,-12.76442 c 0.48131,-0.48211 -0.0837,-2.1511 -1.24171,-3.66763 -1.8064,-2.36578 -5.08378,-3.28818 -7.60437,-2.14021 -1.92196,0.87532 -4.08674,3.84399 -3.87547,5.3146 0.11583,0.80619 1.04239,0.92043 7.0489,0.86915 3.78453,-0.0323 5.4391,-0.14196 5.67265,-0.37591 z"
         id="path3370" />
      <path
         style="fill:#87a2ad;fill-opacity:1;stroke-width:0.271186"
         d="m 318.64231,189.57713 c -2.04232,-0.62125 -4.30845,-2.72642 -5.37319,-4.99156 -0.8814,-1.87511 -1.27865,-5.44067 -0.90412,-8.11509 0.56908,-4.06358 2.25888,-6.55043 5.45313,-8.02527 1.26097,-0.5822 1.89817,-0.69437 3.94458,-0.69437 2.09128,0 2.67256,0.107 4.06044,0.74742 0.89087,0.41108 1.83209,0.93957 2.0916,1.17442 0.2595,0.23485 0.65943,0.35501 0.88871,0.26703 0.3543,-0.13596 0.41688,-0.91441 0.41688,-5.18544 v -5.02546 h 1.49152 1.49153 v 14.91526 14.91525 h -1.49153 -1.49152 v -0.92655 c 0,-1.24811 -0.44385,-1.31456 -1.81085,-0.27111 -0.648,0.49463 -1.74979,1.0054 -2.52943,1.1726 -1.55164,0.33277 -5.20223,0.35786 -6.23775,0.0429 z m 5.47994,-2.48838 c 1.18767,-0.24883 1.6779,-0.54729 2.82472,-1.7197 1.92422,-1.96716 2.38285,-3.42745 2.20875,-7.03269 -0.16331,-3.38174 -0.65637,-4.67092 -2.37873,-6.21946 -3.63052,-3.26415 -8.87882,-2.01924 -10.6074,2.51611 -0.43754,1.14798 -0.57247,2.11057 -0.57175,4.07885 10e-4,3.88707 0.99295,6.24043 3.20536,7.60777 1.67561,1.03559 3.07877,1.23848 5.31905,0.76912 z"
         id="path3372" />
      <path
         style="fill:#87a2ad;fill-opacity:1;stroke-width:0.271186"
         d="m 343.68325,189.58642 c -2.21558,-0.56913 -4.58881,-2.61871 -5.55106,-4.79403 -1.12754,-2.549 -1.29721,-8.11081 -0.33686,-11.04228 0.60919,-1.85954 2.90219,-4.2515 4.96157,-5.17569 4.86738,-2.18436 10.31032,-0.3512 12.33182,4.1533 0.77722,1.73189 1.50888,4.71668 1.51674,6.18753 l 0.005,0.88136 h -8.17423 -8.17422 l 0.17078,1.63392 c 0.20028,1.9162 0.61216,2.79873 1.84945,3.96284 1.84274,1.73374 4.4699,2.39743 6.85108,1.73074 1.26905,-0.35532 3.50119,-2.26744 3.82019,-3.2725 0.13955,-0.4397 0.41812,-0.52958 1.64133,-0.52958 0.85954,0 1.47325,0.12008 1.47325,0.28826 0,0.69384 -1.54105,3.34351 -2.36569,4.06756 -1.82551,1.60281 -2.92788,1.96915 -6.17669,2.05262 -1.64067,0.0421 -3.36965,-0.0227 -3.84217,-0.14405 z m 8.77257,-12.66769 c 0.86156,-0.23107 0.96925,-0.8198 0.38963,-2.13013 -2.05342,-4.64211 -7.04416,-5.90551 -10.42775,-2.63977 -1.73538,1.67494 -2.71807,4.36155 -1.73973,4.75631 0.47918,0.19336 11.06203,0.20556 11.77785,0.0136 z"
         id="path3374" />
      <path
         style="fill:#87a2ad;fill-opacity:1;stroke-width:0.271186"
         d="m 372.61017,174.63389 v -14.92543 l 2.49487,0.078 2.49488,0.078 3.83803,10.16949 c 4.58806,12.15683 5.333,13.94175 5.86159,14.04479 0.47333,0.0923 0.69443,-0.44121 5.93323,-14.31598 l 3.73738,-9.8983 2.46408,-0.078 2.46408,-0.078 v 14.92543 14.92543 h -1.62712 -1.62712 v -11.54531 c 0,-10.83098 -0.0292,-11.53967 -0.47258,-11.45429 -0.60887,0.11725 -1.44353,2.08048 -5.78616,13.60974 l -3.48573,9.25427 -1.58188,0.0793 -1.58187,0.0793 -3.18899,-8.4861 c -4.36405,-11.61302 -5.66194,-14.70223 -6.22232,-14.81015 -0.42697,-0.0822 -0.46013,0.75331 -0.46013,11.59229 v 11.6809 h -1.62712 -1.62712 z"
         id="path3376" />
      <path
         style="fill:#87a2ad;fill-opacity:1;stroke-width:0.271186"
         d="m 413.90808,189.45119 c -4.30362,-1.39811 -6.58547,-5.12162 -6.58131,-10.73933 0.004,-6.04011 2.71896,-9.7703 7.92196,-10.88615 1.85345,-0.39749 4.56771,-0.1492 6.57371,0.60134 4.27799,1.6006 6.72826,6.79899 5.89605,12.5088 -0.57283,3.9302 -2.1479,6.38844 -5.05092,7.88312 -1.51186,0.77841 -1.9014,0.85631 -4.63367,0.92666 -1.98291,0.0511 -3.3662,-0.0477 -4.12582,-0.29444 z m 6.84764,-3.00201 c 3.49596,-2.04877 4.92876,-7.48464 3.05008,-11.57166 -0.93383,-2.03153 -1.89627,-3.07161 -3.62493,-3.91737 -3.29553,-1.61235 -6.98072,-0.11605 -8.80928,3.57682 -0.57499,1.16122 -0.65744,1.70096 -0.65851,4.31049 -10e-4,2.72789 0.0622,3.10338 0.74052,4.38981 0.94195,1.78649 2.39037,3.19668 3.82855,3.72751 1.6276,0.60074 3.94044,0.38288 5.47357,-0.5156 z"
         id="path3378" />
      <path
         style="fill:#87a2ad;fill-opacity:1;stroke-width:0.271186"
         d="m 432.27119,178.84746 v -10.71187 h 1.35593 1.35593 v 1.37421 c 0,1.30074 0.0326,1.36403 0.61017,1.18375 0.33559,-0.10475 1.03109,-0.55771 1.54555,-1.00657 2.12916,-1.8577 5.21632,-2.50952 8.03327,-1.69614 2.08276,0.60139 3.3,1.54621 3.99177,3.09839 0.60446,1.35631 0.65006,2.06157 0.82157,12.70738 l 0.0928,5.76271 h -1.71708 -1.71707 v -8.35174 -8.35174 l -1.01695,-0.98805 c -1.22926,-1.19432 -2.13185,-1.56271 -3.82882,-1.56271 -1.60631,0 -3.86215,1.07586 -4.78054,2.27993 -1.36526,1.78994 -1.46578,2.38804 -1.6633,9.89654 l -0.18619,7.07777 h -1.44854 -1.44854 z"
         id="path3380" />
      <path
         style="fill:#87a2ad;fill-opacity:1;stroke-width:0.271186"
         d="m 458.83405,189.47659 c -1.82061,-0.51379 -3.16157,-1.44782 -3.90575,-2.72053 -0.60978,-1.04283 -1.3312,-3.4266 -1.10538,-3.65243 0.0536,-0.0536 0.77506,-0.0129 1.60317,0.0906 1.20476,0.15053 1.54211,0.30299 1.68808,0.76289 0.3151,0.99278 1.19793,1.98047 2.36755,2.64872 0.96414,0.55086 1.48383,0.6431 3.56913,0.63342 2.88655,-0.0134 4.20191,-0.48445 5.02398,-1.79921 0.97528,-1.55982 0.26715,-3.43132 -1.68212,-4.44558 -0.39926,-0.20774 -2.10773,-0.73352 -3.79661,-1.16839 -4.29609,-1.1062 -5.93985,-1.78016 -6.99381,-2.86757 -0.75581,-0.7798 -0.9333,-1.19609 -1.03552,-2.42876 -0.18037,-2.175 0.12142,-3.30829 1.19845,-4.50043 1.42406,-1.57627 3.40834,-2.25955 6.60766,-2.27532 2.89813,-0.0143 4.22548,0.2979 5.90961,1.38991 1.21578,0.78832 2.49717,2.87263 2.49717,4.06188 0,0.56776 -0.122,0.62472 -1.33801,0.62472 -1.27325,0 -1.37506,-0.0558 -2.10356,-1.15254 -1.0106,-1.52147 -2.6932,-2.37338 -4.68369,-2.37137 -3.03936,0.003 -4.89169,1.10148 -4.89169,2.90075 0,2.00035 0.85591,2.54813 6.24826,3.99888 6.58617,1.77192 7.72614,2.70732 7.67153,6.29483 -0.0425,2.79138 -0.75015,3.99597 -3.07406,5.23273 -1.70266,0.90613 -1.87326,0.93972 -5.15081,1.01407 -2.1672,0.0492 -3.83482,-0.0487 -4.62358,-0.27127 z"
         id="path3382" />
      <path
         style="fill:#87a2ad;fill-opacity:1;stroke-width:0.271186"
         d="m 286.1017,164.18251 c 0,-0.0861 0.68622,-1.3064 1.52493,-2.71186 l 1.52494,-2.5554 h 2.02841 2.02842 l -1.66869,1.88219 c -2.52507,2.84814 -3.40579,3.54154 -4.4983,3.54154 -0.51684,0 -0.93971,-0.0704 -0.93971,-0.15647 z"
         id="path3384" />
      <path
         style="fill:#87a2ad;fill-opacity:1;stroke-width:0.271186"
         d="m 257.89831,161.76271 v -2.0339 h 1.49152 1.49153 v 2.0339 2.0339 h -1.49153 -1.49152 z"
         id="path3386" />
    </g>
  </g>
</svg>
